<svg xmlns="http://www.w3.org/2000/svg" viewBox="0 0 16 15"><defs><style>.cls-1{fill:#424242;}.cls-2{fill:#f0eff1;}.cls-3{fill:#f6f6f6;}.cls-4{fill:#1ba1e2;}</style></defs><title>ProgramTask_16x_1</title><g id="Layer_2" data-name="Layer 2"><g id="Layer_1-2" data-name="Layer 1"><path id="outline" class="cls-1" d="M16,14H8.7a5.8,5.8,0,0,1-3.2,1,5.8,5.8,0,0,1-3.2-1H0V0H16Z"/><path class="cls-1" d="M2,4H5.5A5.6,5.6,0,0,0,2,5.3Z"/><path class="cls-1" d="M5.5,4A5.5,5.5,0,0,1,11,9.5a5.1,5.1,0,0,1-.6,2.5H14V4Z"/><path class="cls-2" d="M7.5,9.2c0,.4-.1.7-.1,1.1l1.8-.5V9.5a3.2,3.2,0,0,0-.3-1.4l-1.5.4C7.4,8.7,7.5,9,7.5,9.2Z"/><path class="cls-2" d="M5.6,13.2a9.5,9.5,0,0,0,.9-2.1h-2a8.6,8.6,0,0,0,.7,2.1h.4Z"/><path class="cls-2" d="M6.6,10.4a5,5,0,0,0,.2-1.2,2,2,0,0,0-.1-.7H4.3v.7a4.9,4.9,0,0,0,.1,1.2H6.6Z"/><path class="cls-2" d="M1.9,9.8l1.7.5V8.4L2.2,8.1a3.2,3.2,0,0,0-.3,1.4Z"/><path class="cls-2" d="M4.4,13a6.6,6.6,0,0,1-.6-2L2,10.6A3.8,3.8,0,0,0,4.4,13Z"/><path class="cls-2" d="M9,10.6l-1.8.5a16.7,16.7,0,0,1-.8,2A3.5,3.5,0,0,0,9,10.6Z"/><path class="cls-2" d="M8.6,7.5A3.4,3.4,0,0,0,6.8,6.1a6.9,6.9,0,0,1,.5,1.7Z"/><path class="cls-2" d="M6.6,7.9a6.8,6.8,0,0,0-.7-2H5.1a10.7,10.7,0,0,0-.7,1.9H6.6Z"/><path class="cls-2" d="M4.2,6.1A3.7,3.7,0,0,0,2.5,7.4l1.2.3A9.8,9.8,0,0,1,4.2,6.1Z"/><path class="cls-1" d="M1,1V6.3l1-1V4H14v8H10.4a3.6,3.6,0,0,1-.7,1H15V1Z"/><path class="cls-3" d="M1,1V6.3l1-1V4H14v8H10.4a3.6,3.6,0,0,1-.7,1H15V1Z"/><path class="cls-4" d="M10,9.5h0A4.4,4.4,0,0,0,5.4,5,4.5,4.5,0,0,0,1,9.6v.3a.8.8,0,0,1,.1.4A4.5,4.5,0,0,0,4.8,14H6A4.4,4.4,0,0,0,10,9.5Zm-2.6-1,1.5-.4a3.2,3.2,0,0,1,.3,1.4v.3l-1.8.5c0-.4.1-.7.1-1.1A1.7,1.7,0,0,0,7.4,8.5Zm1.2-1-1.3.3a4.9,4.9,0,0,0-.6-1.7A3.3,3.3,0,0,1,8.6,7.5ZM5.5,13.2H5.2a8.6,8.6,0,0,1-.7-2.1h2a22,22,0,0,1-.9,2.1Zm0-2.7H4.3a12.1,12.1,0,0,1,0-1.9H6.7a2,2,0,0,1,.1.7,5,5,0,0,1-.2,1.2Zm0-4.7h.3a5,5,0,0,1,.8,2H4.4a6.9,6.9,0,0,1,.7-1.9Zm-1.3.3a7.5,7.5,0,0,0-.5,1.6L2.5,7.4A3.7,3.7,0,0,1,4.2,6.1ZM1.8,9.5a3.2,3.2,0,0,1,.3-1.4l1.5.3v1.9L1.8,9.8ZM2,10.6l1.7.4a17.2,17.2,0,0,0,.7,2.1A3.6,3.6,0,0,1,2,10.6Zm4.4,2.5a10.4,10.4,0,0,0,.8-2l1.9-.5A3.6,3.6,0,0,1,6.4,13.1Z"/></g></g></svg>