<svg xmlns="http://www.w3.org/2000/svg" viewBox="0 0 15 14"><defs><style>.cls-1{fill:#424242;}.cls-2{fill:#f6f6f6;}</style></defs><title>Table_16x_1</title><g id="Layer_2" data-name="Layer 2"><g id="Layer_1-2" data-name="Layer 1"><path id="outline" class="cls-1" d="M0,14V0H15V14Z"/><path id="iconFg" class="cls-1" d="M2,10H5v2H2ZM2,9H5V7H2ZM2,6H5V4H2Zm4,6H9V10H6ZM6,9H9V7H6ZM6,6H9V4H6Zm4,6h3V10H10Zm0-3h3V7H10Zm0-5V6h3V4Z"/><g id="iconBg"><path class="cls-2" d="M1,1V13H14V1ZM5,12H2V10H5ZM5,9H2V7H5ZM5,6H2V4H5Zm4,6H6V10H9ZM9,9H6V7H9ZM9,6H6V4H9Zm4,6H10V10h3Zm0-3H10V7h3Zm0-3H10V4h3Z"/></g></g></g></svg>