<svg xmlns="http://www.w3.org/2000/svg" viewBox="0 0 15 13"><defs><style>.cls-1{fill:#424242;}.cls-2{fill:#f6f6f6;}</style></defs><title>Asset 3</title><g id="Layer_2" data-name="Layer 2"><g id="Layer_1-2" data-name="Layer 1"><path class="cls-1" d="M2.6,13A2.6,2.6,0,0,1,0,10.4V2.6A2.6,2.6,0,0,1,2.6,0h9.8A2.6,2.6,0,0,1,15,2.6v7.8A2.6,2.6,0,0,1,12.4,13Z"/><path class="cls-2" d="M12.4,2a.6.6,0,0,1,.6.6v7.8a.6.6,0,0,1-.6.6H2.6a.6.6,0,0,1-.6-.6V2.6A.6.6,0,0,1,2.6,2h9.8m0-1H2.6A1.6,1.6,0,0,0,1,2.6v7.8A1.6,1.6,0,0,0,2.6,12h9.8A1.6,1.6,0,0,0,14,10.4V2.6A1.6,1.6,0,0,0,12.4,1Z"/><path class="cls-2" d="M6.4,8.4a1.2,1.2,0,0,1-.9.5,1,1,0,0,1-1-1.1c0-.8.4-1.2,1-1.2a1.2,1.2,0,0,1,.9.5V6.5a.7.7,0,0,0-.7-.7,1.2,1.2,0,0,0-.8.4l-.3-.4a1.8,1.8,0,0,1,1.2-.5A1.1,1.1,0,0,1,7,6.5V8.8H6.4Zm0-.9a.8.8,0,0,0-.7-.4c-.4,0-.6.3-.6.7s.2.7.6.7a1,1,0,0,0,.7-.4Z"/><path class="cls-2" d="M7.8,4.1h.6V5.9a1.1,1.1,0,0,1,.9-.6c.8,0,1.2.7,1.2,1.8s-.4,1.8-1.2,1.8a1.1,1.1,0,0,1-.9-.6v.5H7.8ZM9.2,8.3c.5,0,.7-.5.7-1.2s-.2-1.2-.7-1.2a1,1,0,0,0-.8.5V7.8A1,1,0,0,0,9.2,8.3Z"/></g></g></svg>