<svg xmlns="http://www.w3.org/2000/svg" viewBox="0 0 16 16"><defs><style>.cls-1{fill:#424242;}.cls-2{fill:#f6f6f6;}</style></defs><title>GroupBox_16x</title><g id="Layer_2" data-name="Layer 2"><g id="Layer_1-2" data-name="Layer 1"><path id="outline" class="cls-1" d="M16,2V16H0V2H3V0h9V2Z"/><path id="iconBg" class="cls-2" d="M6,3.5,7,6H6L5.5,4.8,5,6H4L5,3.5,4,1H5l.5,1.3L6,1H7ZM10,1,9.5,2.5,9,1H8L9,4V6h1V4l1-3Zm2,2V4h2V14H2V4H3V3H1V15H15V3Z"/><path id="iconFg" class="cls-1" d="M14,4V14H2V4H3V7h8V4Z"/></g></g></svg>