<svg xmlns="http://www.w3.org/2000/svg" viewBox="0 0 16 15"><defs><style>.cls-1{fill:#424242;}.cls-2{fill:#f6f6f6;}.cls-3{fill:#1ba1e2;}.cls-4{fill:#c27d1a;}</style></defs><title>Image_16x_1</title><g id="Layer_2" data-name="Layer 2"><g id="Layer_1-2" data-name="Layer 1"><path class="cls-1" d="M16,0V15H0V0Z"/><path class="cls-1" d="M1,1v9l1-.9V2H14v9.1l1,.9V1Z"/><path class="cls-2" d="M1,1v9l1-.9V2H14v9.1l1,.9V1Z"/><path class="cls-1" d="M5,6.3l-3,3V2H14v9.3l-2-2-2,2Zm5-1.8a1.5,1.5,0,0,0,3,0,1.5,1.5,0,0,0-3,0Z"/><path class="cls-3" d="M1,10,5,6.3l5,5,2-2L15,12v2H1Z"/><circle class="cls-4" cx="11.5" cy="4.5" r="1.5"/></g></g></svg>