<svg xmlns="http://www.w3.org/2000/svg" viewBox="0 0 14 14"><defs><style>.cls-1{fill:#424242;}.cls-2{fill:#f6f6f6;}</style></defs><title>RadioButton_16x_1</title><g id="Layer_2" data-name="Layer 2"><g id="Layer_1-2" data-name="Layer 1"><path id="outline" class="cls-1" d="M7,14A7,7,0,0,1,0,7,7,7,0,0,1,7,0a7,7,0,0,1,7,7A7,7,0,0,1,7,14Z"/><path id="iconBg" class="cls-2" d="M7,1a6,6,0,1,0,6,6A6,6,0,0,0,7,1ZM7,11a4,4,0,1,1,4-4A4,4,0,0,1,7,11ZM9,7A1.9,1.9,0,0,1,7,9,1.9,1.9,0,0,1,5,7.1H5A2,2,0,0,1,7,5,2.1,2.1,0,0,1,9,7Z"/><g id="iconFg"><path class="cls-1" d="M7,3a4,4,0,1,0,4,4A4,4,0,0,0,7,3ZM7,9A1.9,1.9,0,0,1,5,7,1.9,1.9,0,0,1,6.9,5H7A2,2,0,0,1,9,7,2.1,2.1,0,0,1,7,9Z"/></g></g></g></svg>