<svg xmlns="http://www.w3.org/2000/svg" viewBox="0 0 15 14"><defs><style>.cls-1{fill:#424242;}.cls-2{fill:#f6f6f6;}</style></defs><title>TextBox_16x</title><g id="Layer_2" data-name="Layer 2"><g id="Layer_1-2" data-name="Layer 1"><path id="outline" class="cls-1" d="M15,14H0V0H15Z"/><path id="iconBg" class="cls-2" d="M1,1V13H14V1ZM13,12H2V2H13Z"/><path class="cls-2" d="M5.5,9.2a1.5,1.5,0,0,1-1.3.5A1.3,1.3,0,0,1,2.9,8.4,1.2,1.2,0,0,1,4.2,7.2a1.5,1.5,0,0,1,1.3.5V7c0-.4-.4-.7-1-.7a1.3,1.3,0,0,0-1.1.5L3,6.3a2.6,2.6,0,0,1,1.6-.7c.9,0,1.6.4,1.6,1.4V9.6H5.5Zm0-1.1a1.2,1.2,0,0,0-1-.4.8.8,0,0,0-.9.8.8.8,0,0,0,.9.7,1.2,1.2,0,0,0,1-.4Z"/><path class="cls-2" d="M6.9,4.3h.8v2a1.5,1.5,0,0,1,1.2-.7,1.9,1.9,0,0,1,1.8,2.1,1.8,1.8,0,0,1-1.8,2,1.3,1.3,0,0,1-1.2-.6v.5H6.9ZM8.7,9.1c.8,0,1.2-.6,1.2-1.4S9.5,6.3,8.7,6.3a1.2,1.2,0,0,0-1,.6V8.5A1.2,1.2,0,0,0,8.7,9.1Z"/><path class="cls-2" d="M11.1,4.3h.8V9.6h-.8Z"/></g></g></svg>